<svg xmlns="http://www.w3.org/2000/svg" width="100" height="29.433" viewBox="0 0 100 29.433">
  <g id="btn_appStore" transform="translate(-416.326 -1712.747)">
    <g id="Grupo_35" data-name="Grupo 35" transform="translate(416.326 1712.747)">
      <g id="Grupo_31" data-name="Grupo 31">
        <path id="Trazado_4624" data-name="Trazado 4624" d="M513.076,1713.669h-92.4a3.43,3.43,0,0,0-3.43,3.429v21.834a3.43,3.43,0,0,0,3.43,3.429h92.4a3.429,3.429,0,0,0,3.429-3.429V1717.1A3.429,3.429,0,0,0,513.076,1713.669Z" transform="translate(-416.878 -1713.299)" fill="#070308"/>
        <path id="Trazado_4625" data-name="Trazado 4625" d="M512.562,1742.18H420.09a3.768,3.768,0,0,1-3.764-3.762v-21.907a3.768,3.768,0,0,1,3.764-3.764h92.472a3.768,3.768,0,0,1,3.764,3.764v21.907A3.769,3.769,0,0,1,512.562,1742.18ZM420.09,1713.49a3.025,3.025,0,0,0-3.021,3.021v21.907a3.025,3.025,0,0,0,3.021,3.022h92.472a3.025,3.025,0,0,0,3.021-3.022v-21.907a3.025,3.025,0,0,0-3.021-3.021Z" transform="translate(-416.326 -1712.747)" fill="#a5a6a8"/>
      </g>
      <g id="Grupo_34" data-name="Grupo 34" transform="translate(9.445 4.357)">
        <g id="Grupo_32" data-name="Grupo 32">
          <path id="Trazado_4626" data-name="Trazado 4626" d="M452.706,1740.465a4.3,4.3,0,0,1,2.05-3.61,4.409,4.409,0,0,0-3.472-1.878c-1.459-.153-2.877.875-3.62.875-.758,0-1.907-.86-3.14-.834a4.623,4.623,0,0,0-3.891,2.374c-1.682,2.912-.428,7.193,1.184,9.548.806,1.153,1.748,2.44,2.982,2.394,1.206-.051,1.656-.769,3.113-.769s1.866.769,3.124.74c1.294-.021,2.108-1.158,2.887-2.322a9.533,9.533,0,0,0,1.322-2.689,4.164,4.164,0,0,1-2.539-3.828" transform="translate(-439.835 -1730.393)" fill="#fff"/>
          <path id="Trazado_4627" data-name="Trazado 4627" d="M461.733,1726.627a4.231,4.231,0,0,0,.969-3.036,4.308,4.308,0,0,0-2.788,1.443,4.03,4.03,0,0,0-1,2.924,3.566,3.566,0,0,0,2.815-1.331" transform="translate(-451.238 -1723.591)" fill="#fff"/>
        </g>
        <g id="Grupo_33" data-name="Grupo 33" transform="translate(21.992 8.751)">
          <path id="Trazado_4628" data-name="Trazado 4628" d="M502.889,1755.592h-1.681l-.921-2.9h-3.2l-.878,2.9h-1.637l3.172-9.851H499.7Zm-2.879-4.109-.832-2.572q-.134-.394-.5-1.855h-.029c-.1.42-.255,1.037-.469,1.855l-.818,2.572Z" transform="translate(-494.572 -1745.593)" fill="#fff"/>
          <path id="Trazado_4629" data-name="Trazado 4629" d="M525.387,1755.826a4.041,4.041,0,0,1-.98,2.865,2.863,2.863,0,0,1-2.176.934,2.181,2.181,0,0,1-2.018-1.009h-.028v3.741h-1.579V1754.7q0-1.14-.059-2.338h1.387l.088,1.126h.031a2.808,2.808,0,0,1,4.494-.277,3.914,3.914,0,0,1,.84,2.615m-1.608.057a2.93,2.93,0,0,0-.468-1.71,1.616,1.616,0,0,0-1.373-.7,1.634,1.634,0,0,0-1.059.388,1.8,1.8,0,0,0-.621,1.017,2.021,2.021,0,0,0-.072.481v1.185a1.894,1.894,0,0,0,.473,1.308,1.574,1.574,0,0,0,1.235.533,1.61,1.61,0,0,0,1.387-.687,3.016,3.016,0,0,0,.5-1.812" transform="translate(-508.915 -1749.467)" fill="#fff"/>
          <path id="Trazado_4630" data-name="Trazado 4630" d="M545.722,1755.826a4.034,4.034,0,0,1-.979,2.865,2.862,2.862,0,0,1-2.178.934,2.18,2.18,0,0,1-2.016-1.009h-.029v3.741h-1.578V1754.7q0-1.14-.059-2.338h1.387l.088,1.126h.031a2.809,2.809,0,0,1,4.495-.277,3.916,3.916,0,0,1,.839,2.615m-1.606.057a2.919,2.919,0,0,0-.469-1.71,1.615,1.615,0,0,0-1.373-.7,1.636,1.636,0,0,0-1.059.388,1.79,1.79,0,0,0-.62,1.017,1.974,1.974,0,0,0-.073.481v1.185a1.891,1.891,0,0,0,.474,1.308,1.571,1.571,0,0,0,1.235.533,1.614,1.614,0,0,0,1.388-.687,3.036,3.036,0,0,0,.5-1.812" transform="translate(-521.08 -1749.467)" fill="#fff"/>
          <path id="Trazado_4631" data-name="Trazado 4631" d="M569.544,1752.609a2.623,2.623,0,0,1-.875,2.046,3.873,3.873,0,0,1-2.682.862,4.7,4.7,0,0,1-2.554-.613l.367-1.315a4.32,4.32,0,0,0,2.282.628,2.158,2.158,0,0,0,1.39-.4,1.318,1.318,0,0,0,.5-1.077,1.376,1.376,0,0,0-.408-1.01,3.8,3.8,0,0,0-1.361-.763q-2.587-.967-2.586-2.825a2.5,2.5,0,0,1,.906-1.99,3.58,3.58,0,0,1,2.411-.777,4.787,4.787,0,0,1,2.235.468l-.395,1.286a3.89,3.89,0,0,0-1.886-.453,1.9,1.9,0,0,0-1.3.409,1.177,1.177,0,0,0-.395.892,1.2,1.2,0,0,0,.452.964,5.076,5.076,0,0,0,1.433.761,4.867,4.867,0,0,1,1.871,1.2,2.526,2.526,0,0,1,.6,1.712" transform="translate(-535.767 -1745.373)" fill="#fff"/>
          <path id="Trazado_4632" data-name="Trazado 4632" d="M585.187,1751.126h-1.739v3.449q0,1.316.921,1.315a2.85,2.85,0,0,0,.7-.072l.044,1.2a3.542,3.542,0,0,1-1.226.174,1.891,1.891,0,0,1-1.462-.569,2.8,2.8,0,0,1-.526-1.915v-3.581h-1.039v-1.185H581.9v-1.3l1.548-.469v1.769h1.74v1.185Z" transform="translate(-546.192 -1747.048)" fill="#fff"/>
          <path id="Trazado_4633" data-name="Trazado 4633" d="M600.809,1755.853a3.9,3.9,0,0,1-.935,2.689,3.339,3.339,0,0,1-2.6,1.081,3.175,3.175,0,0,1-2.493-1.039,3.771,3.771,0,0,1-.928-2.615,3.86,3.86,0,0,1,.957-2.7,3.31,3.31,0,0,1,2.579-1.053,3.247,3.247,0,0,1,2.514,1.038,3.742,3.742,0,0,1,.906,2.6m-1.638.051a3.2,3.2,0,0,0-.424-1.685,1.561,1.561,0,0,0-1.417-.851,1.582,1.582,0,0,0-1.447.851,3.253,3.253,0,0,0-.423,1.715,3.2,3.2,0,0,0,.423,1.685,1.592,1.592,0,0,0,1.434.85,1.574,1.574,0,0,0,1.415-.865,3.189,3.189,0,0,0,.439-1.7" transform="translate(-553.965 -1749.465)" fill="#fff"/>
          <path id="Trazado_4634" data-name="Trazado 4634" d="M618.276,1753.743a2.829,2.829,0,0,0-.5-.044,1.5,1.5,0,0,0-1.288.629,2.368,2.368,0,0,0-.393,1.4v3.726h-1.578l.013-4.866q0-1.228-.057-2.236h1.374l.059,1.36h.043a2.431,2.431,0,0,1,.79-1.127,1.912,1.912,0,0,1,1.141-.381,2.673,2.673,0,0,1,.393.028v1.509Z" transform="translate(-566.303 -1749.461)" fill="#fff"/>
          <path id="Trazado_4635" data-name="Trazado 4635" d="M632.1,1755.551a3.748,3.748,0,0,1-.057.715H627.31a2.063,2.063,0,0,0,.686,1.609,2.34,2.34,0,0,0,1.55.495,5.245,5.245,0,0,0,1.914-.336l.248,1.1a5.949,5.949,0,0,1-2.383.44,3.447,3.447,0,0,1-2.593-.973,3.594,3.594,0,0,1-.943-2.609,4.065,4.065,0,0,1,.879-2.675,3.022,3.022,0,0,1,2.483-1.14,2.646,2.646,0,0,1,2.326,1.14,3.853,3.853,0,0,1,.625,2.238m-1.5-.409a2.147,2.147,0,0,0-.305-1.213,1.382,1.382,0,0,0-1.258-.658,1.5,1.5,0,0,0-1.256.644,2.326,2.326,0,0,0-.466,1.227Z" transform="translate(-573.07 -1749.441)" fill="#fff"/>
        </g>
      </g>
    </g>
    <g id="Grupo_36" data-name="Grupo 36" transform="translate(448.528 1717.341)">
      <path id="Trazado_4636" data-name="Trazado 4636" d="M499.5,1724.37a1.694,1.694,0,0,1,.879.656,2.3,2.3,0,0,1,.368.834,4,4,0,0,1,.1.854,3.438,3.438,0,0,1-.413,1.744,1.868,1.868,0,0,1-1.732.964h-2.227v-5.165H498.7A2.761,2.761,0,0,1,499.5,1724.37Zm-1.979.785v3.37h1a1.074,1.074,0,0,0,1.066-.753,2.645,2.645,0,0,0,.165-.985,2.412,2.412,0,0,0-.248-1.21,1.046,1.046,0,0,0-.985-.422Z" transform="translate(-496.476 -1724.227)" fill="#fff"/>
      <path id="Trazado_4637" data-name="Trazado 4637" d="M510.221,1725.1h-1.013v-.921h1.013Zm-1.013.456h1.013v3.818h-1.013Z" transform="translate(-504.093 -1724.182)" fill="#fff"/>
      <path id="Trazado_4638" data-name="Trazado 4638" d="M514.557,1730.047a.663.663,0,0,0,.137.378.929.929,0,0,0,.69.2,1.057,1.057,0,0,0,.471-.088.28.28,0,0,0,.175-.262.284.284,0,0,0-.14-.256,5.721,5.721,0,0,0-1.045-.3,2.168,2.168,0,0,1-.917-.4.874.874,0,0,1-.266-.686,1.19,1.19,0,0,1,.416-.909,1.675,1.675,0,0,1,1.172-.38,2.151,2.151,0,0,1,1.168.285,1.224,1.224,0,0,1,.518.986h-1a.6.6,0,0,0-.109-.305.685.685,0,0,0-.562-.2.806.806,0,0,0-.465.1.293.293,0,0,0-.139.239.261.261,0,0,0,.148.249,6.392,6.392,0,0,0,1.042.277,1.91,1.91,0,0,1,.894.424.963.963,0,0,1,.295.718,1.159,1.159,0,0,1-.423.926,2.543,2.543,0,0,1-2.64-.021,1.235,1.235,0,0,1-.431-.969h1.01Z" transform="translate(-506.688 -1726.071)" fill="#fff"/>
      <path id="Trazado_4639" data-name="Trazado 4639" d="M527.241,1727.893a2.032,2.032,0,0,1,.468,1.45,2.285,2.285,0,0,1-.457,1.538,1.482,1.482,0,0,1-1.176.529,1.229,1.229,0,0,1-.761-.228,1.453,1.453,0,0,1-.324-.367v1.99H524v-5.32h.957v.564a1.632,1.632,0,0,1,.346-.392,1.276,1.276,0,0,1,.8-.255A1.5,1.5,0,0,1,527.241,1727.893Zm-.766.718a.71.71,0,0,0-.66-.34.752.752,0,0,0-.755.515,1.938,1.938,0,0,0-.106.694,1.1,1.1,0,0,0,.357.936.819.819,0,0,0,.5.157.731.731,0,0,0,.642-.323,1.691,1.691,0,0,0,.019-1.639Z" transform="translate(-512.944 -1726.107)" fill="#fff"/>
      <path id="Trazado_4640" data-name="Trazado 4640" d="M537.816,1730.776a2.1,2.1,0,0,1-2.935,0,2.368,2.368,0,0,1,0-2.868,2.082,2.082,0,0,1,2.935,0,2.368,2.368,0,0,1,0,2.868Zm-.8-.552a1.783,1.783,0,0,0,0-1.769.888.888,0,0,0-1.347,0,1.773,1.773,0,0,0,0,1.769.883.883,0,0,0,1.347,0Z" transform="translate(-519.162 -1726.049)" fill="#fff"/>
      <path id="Trazado_4641" data-name="Trazado 4641" d="M548.975,1727.691a1.259,1.259,0,0,1,.374,1.027v2.571h-1.023v-2.321a1.074,1.074,0,0,0-.08-.463.563.563,0,0,0-.557-.294.691.691,0,0,0-.692.431,1.484,1.484,0,0,0-.1.581v2.067h-1v-3.812h.966v.557a1.717,1.717,0,0,1,.363-.424,1.254,1.254,0,0,1,.778-.231A1.466,1.466,0,0,1,548.975,1727.691Z" transform="translate(-526.044 -1726.095)" fill="#fff"/>
      <path id="Trazado_4642" data-name="Trazado 4642" d="M557.842,1725.1h-1.013v-.921h1.013Zm-1.012.456h1.013v3.818H556.83Z" transform="translate(-532.581 -1724.182)" fill="#fff"/>
      <path id="Trazado_4643" data-name="Trazado 4643" d="M564.965,1726.073a2.2,2.2,0,0,1,.428,1.4,2.462,2.462,0,0,1-.422,1.476,1.533,1.533,0,0,1-1.943.4,1.522,1.522,0,0,1-.373-.392v.48h-.985v-5.158h1v1.835a1.451,1.451,0,0,1,.42-.407,1.25,1.25,0,0,1,.692-.175A1.424,1.424,0,0,1,564.965,1726.073Zm-.834,2.325a1.412,1.412,0,0,0,.216-.82,1.867,1.867,0,0,0-.105-.673.739.739,0,0,0-.742-.5.751.751,0,0,0-.753.494,1.836,1.836,0,0,0-.105.679,1.421,1.421,0,0,0,.219.813.753.753,0,0,0,.668.323A.693.693,0,0,0,564.131,1728.4Z" transform="translate(-535.477 -1724.238)" fill="#fff"/>
      <path id="Trazado_4644" data-name="Trazado 4644" d="M573.717,1729.423h-1v-5.165h1Z" transform="translate(-542.087 -1724.227)" fill="#fff"/>
      <path id="Trazado_4645" data-name="Trazado 4645" d="M579.668,1727.537a1.556,1.556,0,0,1,.66.565,1.881,1.881,0,0,1,.3.789,4.986,4.986,0,0,1,.033.759h-2.781a.918.918,0,0,0,.4.806,1.011,1.011,0,0,0,.55.144.851.851,0,0,0,.554-.174.824.824,0,0,0,.205-.263h1.02a1.247,1.247,0,0,1-.37.69,1.855,1.855,0,0,1-1.437.557,2.074,2.074,0,0,1-1.345-.47,1.854,1.854,0,0,1-.582-1.529,2.071,2.071,0,0,1,.526-1.522,1.84,1.84,0,0,1,1.366-.529A2.115,2.115,0,0,1,579.668,1727.537Zm-1.494.862a1.04,1.04,0,0,0-.266.592h1.72a.833.833,0,0,0-.266-.6.875.875,0,0,0-.592-.2A.787.787,0,0,0,578.174,1728.4Z" transform="translate(-544.576 -1726.083)" fill="#fff"/>
      <path id="Trazado_4646" data-name="Trazado 4646" d="M594.563,1727.537a1.558,1.558,0,0,1,.66.565,1.881,1.881,0,0,1,.3.789,5.035,5.035,0,0,1,.033.759h-2.781a.918.918,0,0,0,.4.806,1.011,1.011,0,0,0,.55.144.851.851,0,0,0,.554-.174.83.83,0,0,0,.205-.263h1.02a1.245,1.245,0,0,1-.371.69,1.854,1.854,0,0,1-1.437.557,2.072,2.072,0,0,1-1.345-.47,1.854,1.854,0,0,1-.583-1.529,2.069,2.069,0,0,1,.527-1.522,1.84,1.84,0,0,1,1.366-.529A2.119,2.119,0,0,1,594.563,1727.537Zm-1.494.862a1.044,1.044,0,0,0-.267.592h1.721a.833.833,0,0,0-.266-.6.875.875,0,0,0-.592-.2A.787.787,0,0,0,593.069,1728.4Z" transform="translate(-553.486 -1726.083)" fill="#fff"/>
      <path id="Trazado_4647" data-name="Trazado 4647" d="M605.542,1727.691a1.259,1.259,0,0,1,.375,1.027v2.571h-1.024v-2.321a1.075,1.075,0,0,0-.08-.463.563.563,0,0,0-.557-.294.691.691,0,0,0-.692.431,1.484,1.484,0,0,0-.1.581v2.067h-1v-3.812h.966v.557a1.708,1.708,0,0,1,.362-.424,1.255,1.255,0,0,1,.778-.231A1.46,1.46,0,0,1,605.542,1727.691Z" transform="translate(-559.884 -1726.095)" fill="#fff"/>
    </g>
  </g>
</svg>
