<svg xmlns="http://www.w3.org/2000/svg" xmlns:xlink="http://www.w3.org/1999/xlink" width="100" height="29.63" viewBox="0 0 100 29.63">
  <defs>
    <linearGradient id="linear-gradient" x1="53.675" y1="-3.065" x2="53.733" y2="-3.065" gradientUnits="objectBoundingBox">
      <stop offset="0" stop-color="#00a0ff"/>
      <stop offset="0.007" stop-color="#00a1ff"/>
      <stop offset="0.26" stop-color="#00beff"/>
      <stop offset="0.512" stop-color="#00d2ff"/>
      <stop offset="0.76" stop-color="#00dfff"/>
      <stop offset="1" stop-color="#00e3ff"/>
    </linearGradient>
    <linearGradient id="linear-gradient-2" x1="65.455" y1="-12.67" x2="65.529" y2="-12.67" gradientUnits="objectBoundingBox">
      <stop offset="0" stop-color="#ffe000"/>
      <stop offset="0.409" stop-color="#ffbd00"/>
      <stop offset="0.775" stop-color="orange"/>
      <stop offset="1" stop-color="#ff9c00"/>
    </linearGradient>
    <linearGradient id="linear-gradient-3" x1="40.983" y1="-6.826" x2="41.028" y2="-6.826" gradientUnits="objectBoundingBox">
      <stop offset="0" stop-color="#ff3a44"/>
      <stop offset="1" stop-color="#c31162"/>
    </linearGradient>
    <linearGradient id="linear-gradient-4" x1="39.992" y1="-0.796" x2="40.037" y2="-0.796" gradientUnits="objectBoundingBox">
      <stop offset="0" stop-color="#32a071"/>
      <stop offset="0.068" stop-color="#2da771"/>
      <stop offset="0.476" stop-color="#15cf74"/>
      <stop offset="0.801" stop-color="#06e775"/>
      <stop offset="1" stop-color="#00f076"/>
    </linearGradient>
    <clipPath id="clip-path">
      <rect id="Rectángulo_3458" data-name="Rectángulo 3458" width="12.36" height="6.466" fill="none"/>
    </clipPath>
    <clipPath id="clip-path-2">
      <rect id="Rectángulo_3459" data-name="Rectángulo 3459" width="0.398" height="1.149" fill="none"/>
    </clipPath>
    <clipPath id="clip-path-3">
      <rect id="Rectángulo_3460" data-name="Rectángulo 3460" width="4.47" height="3.129" fill="none"/>
    </clipPath>
    <clipPath id="clip-path-4">
      <rect id="Rectángulo_3461" data-name="Rectángulo 3461" width="17.104" height="9.526" fill="none"/>
    </clipPath>
  </defs>
  <g id="btn_gooPlay" transform="translate(-133.497 -1713.637)">
    <g id="g12" transform="translate(133.497 1713.637)">
      <g id="Grupo_38" data-name="Grupo 38" transform="translate(0)">
        <g id="g14">
          <g id="g34">
            <path id="path36" d="M229.793,1743.267H137.2a3.715,3.715,0,0,1-3.7-3.7v-22.222a3.715,3.715,0,0,1,3.7-3.7h92.593a3.715,3.715,0,0,1,3.7,3.7v22.222a3.715,3.715,0,0,1-3.7,3.7" transform="translate(-133.497 -1713.637)"/>
          </g>
          <g id="g38">
            <path id="path40" d="M229.793,1713.637H137.2a3.715,3.715,0,0,0-3.7,3.7v22.222a3.715,3.715,0,0,0,3.7,3.7h92.593a3.715,3.715,0,0,0,3.7-3.7v-22.222a3.715,3.715,0,0,0-3.7-3.7m0,.593a3.115,3.115,0,0,1,3.111,3.111v22.222a3.114,3.114,0,0,1-3.111,3.111H137.2a3.114,3.114,0,0,1-3.111-3.111v-22.222a3.115,3.115,0,0,1,3.111-3.111h92.593" transform="translate(-133.497 -1713.637)" fill="#a6a6a6"/>
          </g>
          <path id="path42" d="M255.648,1753.695h1.382v-9.26h-1.382Zm12.45-5.925-1.584,4.015h-.047l-1.644-4.015h-1.489l2.466,5.611-1.405,3.121h1.44l3.8-8.733Zm-7.839,4.873c-.453,0-1.084-.226-1.084-.786,0-.714.786-.988,1.465-.988a2.463,2.463,0,0,1,1.263.31,1.675,1.675,0,0,1-1.644,1.465m.167-5.074a2.594,2.594,0,0,0-2.466,1.418l1.227.512a1.31,1.31,0,0,1,1.263-.679,1.331,1.331,0,0,1,1.453,1.192v.095a3.057,3.057,0,0,0-1.442-.357c-1.322,0-2.669.727-2.669,2.084a2.14,2.14,0,0,0,2.3,2.038,1.949,1.949,0,0,0,1.763-.906h.048v.715h1.334v-3.55a2.539,2.539,0,0,0-2.811-2.56m-8.542,1.329h-1.966v-3.174h1.966a1.587,1.587,0,1,1,0,3.174m-.036-4.463h-3.312v9.26h1.381v-3.508h1.93a2.88,2.88,0,1,0,0-5.752m-18.06,8.21a1.916,1.916,0,0,1,0-3.819,1.925,1.925,0,0,1,0,3.819m1.587-4.356h-.048a2.185,2.185,0,0,0-1.658-.7,3.153,3.153,0,0,0,0,6.3,2.146,2.146,0,0,0,1.658-.716h.048v.454c0,1.206-.645,1.85-1.683,1.85a1.744,1.744,0,0,1-1.588-1.122l-1.205.5a3,3,0,0,0,2.793,1.862c1.623,0,3-.955,3-3.282v-5.657h-1.313Zm2.267,5.406h1.384v-9.261h-1.384Zm3.424-3.055a1.729,1.729,0,0,1,1.647-1.838,1.218,1.218,0,0,1,1.169.668Zm4.3-1.05a2.929,2.929,0,0,0-2.7-2,2.993,2.993,0,0,0-2.971,3.15,3.083,3.083,0,0,0,3.126,3.15,3.133,3.133,0,0,0,2.626-1.4l-1.074-.716a1.8,1.8,0,0,1-1.552.871,1.6,1.6,0,0,1-1.527-.954l4.213-1.743Zm-33.561-1.037v1.336H215a2.787,2.787,0,0,1-.727,1.682,3.274,3.274,0,0,1-2.47.979,3.557,3.557,0,0,1,0-7.113,3.408,3.408,0,0,1,2.41.955l.943-.943a4.664,4.664,0,0,0-3.353-1.349,4.893,4.893,0,1,0,0,9.786,4.473,4.473,0,0,0,3.412-1.373,4.414,4.414,0,0,0,1.158-3.127,4.317,4.317,0,0,0-.072-.835Zm8.207,4.093a1.914,1.914,0,1,1,1.778-1.909,1.823,1.823,0,0,1-1.778,1.909m0-5.059a3.15,3.15,0,1,0,3.162,3.15,3.105,3.105,0,0,0-3.162-3.15m6.9,5.059a1.914,1.914,0,1,1,1.778-1.909,1.823,1.823,0,0,1-1.778,1.909m0-5.059a3.15,3.15,0,1,0,3.162,3.15,3.105,3.105,0,0,0-3.162-3.15" transform="translate(-176.437 -1731.473)" fill="#fff"/>
        </g>
      </g>
    </g>
    <g id="g44" transform="translate(140.884 1719.167)">
      <g id="g46" transform="translate(0)">
        <g id="g52">
          <g id="g54">
            <path id="path70" d="M151.66,1727.031a1.488,1.488,0,0,0-.342,1.041h0v16.382a1.486,1.486,0,0,0,.342,1.041h0l.055.053,9.178-9.177v-.217l-9.178-9.177Z" transform="translate(-151.318 -1726.977)" fill="url(#linear-gradient)"/>
          </g>
        </g>
      </g>
    </g>
    <g id="g72" transform="translate(150.459 1725.285)">
      <g id="g74" transform="translate(0)">
        <g id="g80">
          <g id="g82">
            <path id="path94" d="M174.417,1744.8v.217l3.058,3.06.07-.039,3.625-2.059a1.125,1.125,0,0,0,0-2.139h0l-3.625-2.06-.069-.039Z" transform="translate(-174.417 -1741.736)" fill="url(#linear-gradient-2)"/>
          </g>
        </g>
      </g>
    </g>
    <g id="g96" transform="translate(141.227 1728.453)">
      <g id="g98" transform="translate(0)">
        <g id="g104">
          <g id="g106">
            <path id="path114" d="M152.144,1758.611a1.208,1.208,0,0,0,1.54.046h0l10.821-6.149-3.128-3.129Z" transform="translate(-152.144 -1749.379)" fill="url(#linear-gradient-3)"/>
          </g>
        </g>
      </g>
    </g>
    <g id="g116" transform="translate(141.227 1718.926)">
      <g id="g118" transform="translate(0 0)">
        <g id="g124">
          <g id="g126">
            <path id="path140" d="M152.144,1726.691l9.233,9.232,3.128-3.129-10.821-6.148a1.7,1.7,0,0,0-.83-.25h0a.951.951,0,0,0-.71.295" transform="translate(-152.144 -1726.396)" fill="url(#linear-gradient-4)"/>
          </g>
        </g>
      </g>
    </g>
    <g id="g142" transform="translate(140.884 1718.722)">
      <g id="Grupo_47" data-name="Grupo 47" transform="translate(0)">
        <g id="g144">
          <g id="g150" transform="translate(0.343 12.79)">
            <g id="g164">
              <g id="Grupo_40" data-name="Grupo 40">
                <g id="Grupo_39" data-name="Grupo 39" clip-path="url(#clip-path)">
                  <g id="g162" transform="translate(0 0)" opacity="0.2">
                    <g id="g160">
                      <path id="path158" d="M164.436,1756.761l-10.752,6.109a1.233,1.233,0,0,1-1.484.008l-.055.056.055.053h0a1.233,1.233,0,0,0,1.484-.008l10.821-6.148Z" transform="translate(-152.145 -1756.761)"/>
                    </g>
                  </g>
                </g>
              </g>
            </g>
          </g>
          <g id="g166" transform="translate(0 17.813)">
            <g id="g180">
              <g id="Grupo_42" data-name="Grupo 42">
                <g id="Grupo_41" data-name="Grupo 41" clip-path="url(#clip-path-2)">
                  <g id="g178" transform="translate(0)" opacity="0.12">
                    <g id="g176">
                      <path id="path174" d="M151.66,1769.92a1.484,1.484,0,0,1-.343-1.041v.108a1.484,1.484,0,0,0,.343,1.041l.056-.055Z" transform="translate(-151.317 -1768.879)"/>
                    </g>
                  </g>
                </g>
              </g>
            </g>
          </g>
          <g id="g182" transform="translate(12.634 9.731)">
            <g id="g196">
              <g id="Grupo_44" data-name="Grupo 44">
                <g id="Grupo_43" data-name="Grupo 43" clip-path="url(#clip-path-3)">
                  <g id="g194" transform="translate(0 0)" opacity="0.12">
                    <g id="g192">
                      <path id="path190" d="M185.49,1750.341l-3.693,2.1.069.069,3.625-2.059a1.3,1.3,0,0,0,.776-1.069,1.378,1.378,0,0,1-.776.961" transform="translate(-181.797 -1749.38)"/>
                    </g>
                  </g>
                </g>
              </g>
            </g>
          </g>
          <g id="g198" transform="translate(0 0.204)">
            <g id="g212">
              <g id="Grupo_46" data-name="Grupo 46">
                <g id="Grupo_45" data-name="Grupo 45" clip-path="url(#clip-path-4)">
                  <g id="g210" transform="translate(0 0)" opacity="0.25">
                    <g id="g208">
                      <path id="path206" d="M153.2,1726.755l14.445,8.208a1.376,1.376,0,0,1,.776.961,1.3,1.3,0,0,0-.776-1.069l-14.445-8.208c-1.035-.588-1.882-.1-1.882,1.086v.108c0-1.185.847-1.674,1.882-1.086" transform="translate(-151.317 -1726.397)" fill="#fff"/>
                    </g>
                  </g>
                </g>
              </g>
            </g>
          </g>
          <g id="g214" transform="translate(23.191 0.099)">
            <path id="path216" d="M207.835,1730.044h.788a1.678,1.678,0,1,0,0-3.352h-.788Zm-.57.546v-4.444h1.358a2.209,2.209,0,0,1,1.639.618,2.4,2.4,0,0,1,0,3.209,2.207,2.207,0,0,1-1.639.618Z" transform="translate(-207.265 -1726.145)" fill="#fff"/>
          </g>
          <g id="g218" transform="translate(23.191 0.099)">
            <path id="path220" d="M207.835,1730.044h.788a1.678,1.678,0,1,0,0-3.352h-.788Zm-.57.546v-4.444h1.358a2.209,2.209,0,0,1,1.639.618,2.4,2.4,0,0,1,0,3.209,2.207,2.207,0,0,1-1.639.618Z" transform="translate(-207.265 -1726.145)" fill="none" stroke="#fff" stroke-width="0.357"/>
          </g>
          <path id="path222" d="M217.912,1726.146h.571v4.444h-.571Z" transform="translate(-190.307 -1726.046)" fill="#fff" stroke="#fff" stroke-width="0.357"/>
          <g id="g224" transform="translate(28.895 0)">
            <path id="path226" d="M222.578,1730.549a1.656,1.656,0,0,1-.946-.316,1.461,1.461,0,0,1-.606-.888l.521-.21a1.187,1.187,0,0,0,.381.617.965.965,0,0,0,.649.252,1.036,1.036,0,0,0,.636-.2.624.624,0,0,0,.264-.531.678.678,0,0,0-.264-.574,2.746,2.746,0,0,0-.834-.376,2.23,2.23,0,0,1-.894-.481,1.008,1.008,0,0,1-.3-.755,1.1,1.1,0,0,1,.379-.831,1.39,1.39,0,0,1,.987-.354,1.426,1.426,0,0,1,.919.282,1.3,1.3,0,0,1,.459.618l-.521.217a.776.776,0,0,0-.276-.391.972.972,0,0,0-1.13,0,.559.559,0,0,0-.233.456.519.519,0,0,0,.214.42,2.048,2.048,0,0,0,.63.307,5.339,5.339,0,0,1,.55.205,2.51,2.51,0,0,1,.447.264,1.051,1.051,0,0,1,.342.41,1.329,1.329,0,0,1,.115.568,1.224,1.224,0,0,1-.133.577,1.08,1.08,0,0,1-.354.4,1.725,1.725,0,0,1-.475.226,1.762,1.762,0,0,1-.521.078" transform="translate(-221.026 -1725.906)" fill="#fff"/>
          </g>
          <g id="g228" transform="translate(28.895 0)">
            <path id="path230" d="M222.578,1730.549a1.656,1.656,0,0,1-.946-.316,1.461,1.461,0,0,1-.606-.888l.521-.21a1.187,1.187,0,0,0,.381.617.965.965,0,0,0,.649.252,1.036,1.036,0,0,0,.636-.2.624.624,0,0,0,.264-.531.678.678,0,0,0-.264-.574,2.746,2.746,0,0,0-.834-.376,2.23,2.23,0,0,1-.894-.481,1.008,1.008,0,0,1-.3-.755,1.1,1.1,0,0,1,.379-.831,1.39,1.39,0,0,1,.987-.354,1.426,1.426,0,0,1,.919.282,1.3,1.3,0,0,1,.459.618l-.521.217a.776.776,0,0,0-.276-.391.972.972,0,0,0-1.13,0,.559.559,0,0,0-.233.456.519.519,0,0,0,.214.42,2.048,2.048,0,0,0,.63.307,5.339,5.339,0,0,1,.55.205,2.51,2.51,0,0,1,.447.264,1.051,1.051,0,0,1,.342.41,1.329,1.329,0,0,1,.115.568,1.224,1.224,0,0,1-.133.577,1.08,1.08,0,0,1-.354.4,1.725,1.725,0,0,1-.475.226A1.762,1.762,0,0,1,222.578,1730.549Z" transform="translate(-221.026 -1725.906)" fill="none" stroke="#fff" stroke-width="0.357"/>
          </g>
          <g id="g232" transform="translate(32.75 0.1)">
            <path id="path234" d="M230.9,1728.244h.956a.736.736,0,0,0,.577-.242.766.766,0,0,0,0-1.068.737.737,0,0,0-.577-.242H230.9Zm0,2.347h-.571v-4.444h1.515a1.405,1.405,0,0,1,.978.375,1.291,1.291,0,0,1,0,1.893,1.4,1.4,0,0,1-.978.376H230.9Z" transform="translate(-230.325 -1726.146)" fill="#fff"/>
          </g>
          <g id="g236" transform="translate(32.75 0.1)">
            <path id="path238" d="M230.9,1728.244h.956a.736.736,0,0,0,.577-.242.766.766,0,0,0,0-1.068.737.737,0,0,0-.577-.242H230.9Zm0,2.347h-.571v-4.444h1.515a1.405,1.405,0,0,1,.978.375,1.291,1.291,0,0,1,0,1.893,1.4,1.4,0,0,1-.978.376H230.9Z" transform="translate(-230.325 -1726.146)" fill="none" stroke="#fff" stroke-width="0.357"/>
          </g>
          <g id="g240" transform="translate(36.096)">
            <path id="path242" d="M239.474,1729.5a1.71,1.71,0,0,0,2.415,0,1.894,1.894,0,0,0,0-2.551,1.708,1.708,0,0,0-2.415,0,1.9,1.9,0,0,0,0,2.551m2.837.372a2.307,2.307,0,0,1-3.259,0,2.4,2.4,0,0,1,0-3.3,2.3,2.3,0,0,1,3.256,0,2.393,2.393,0,0,1,0,3.293" transform="translate(-238.397 -1725.905)" fill="#fff"/>
          </g>
          <g id="g244" transform="translate(36.096)">
            <path id="path246" d="M239.474,1729.5a1.71,1.71,0,0,0,2.415,0,1.894,1.894,0,0,0,0-2.551,1.708,1.708,0,0,0-2.415,0,1.9,1.9,0,0,0,0,2.551Zm2.837.372a2.307,2.307,0,0,1-3.259,0,2.4,2.4,0,0,1,0-3.3,2.3,2.3,0,0,1,3.256,0,2.393,2.393,0,0,1,0,3.293Z" transform="translate(-238.397 -1725.905)" fill="none" stroke="#fff" stroke-width="0.357"/>
          </g>
          <g id="g248" transform="translate(41.466 0.1)">
            <path id="path250" d="M251.351,1730.59v-4.444h.695l2.161,3.457h.024l-.024-.856v-2.6h.571v4.444h-.6l-2.259-3.625H251.9l.025.857v2.768Z" transform="translate(-251.351 -1726.146)" fill="#fff"/>
          </g>
          <g id="g252" transform="translate(41.466 0.1)">
            <path id="path254" d="M251.351,1730.59v-4.444h.695l2.161,3.457h.024l-.024-.856v-2.6h.571v4.444h-.6l-2.259-3.625H251.9l.025.857v2.768Z" transform="translate(-251.351 -1726.146)" fill="none" stroke="#fff" stroke-width="0.357"/>
          </g>
          <path id="path256" d="M262.073,1726.146h.571v4.444h-.571Z" transform="translate(-216.163 -1726.046)" fill="#fff" stroke="#fff" stroke-width="0.357"/>
          <g id="g258" transform="translate(47.498 0.099)">
            <path id="path260" d="M266.475,1730.044h1.149a.68.68,0,0,0,.533-.23.735.735,0,0,0,.205-.5.748.748,0,0,0-.764-.727h-1.124Zm0-1.993h1.036a.669.669,0,0,0,.519-.214.687.687,0,0,0,.195-.469.677.677,0,0,0-.19-.465.636.636,0,0,0-.5-.211h-1.062Zm-.571,2.538v-4.444h1.608a1.309,1.309,0,0,1,.9.344,1.118,1.118,0,0,1,.382.866.969.969,0,0,1-.165.56,1.035,1.035,0,0,1-.438.366v.024a1.132,1.132,0,0,1,.541.386,1.009,1.009,0,0,1,.211.633,1.167,1.167,0,0,1-.4.906,1.369,1.369,0,0,1-.947.36Z" transform="translate(-265.904 -1726.145)" fill="#fff"/>
          </g>
          <g id="g262" transform="translate(47.498 0.099)">
            <path id="path264" d="M266.475,1730.044h1.149a.68.68,0,0,0,.533-.23.735.735,0,0,0,.205-.5.748.748,0,0,0-.764-.727h-1.124Zm0-1.993h1.036a.669.669,0,0,0,.519-.214.687.687,0,0,0,.195-.469.677.677,0,0,0-.19-.465.636.636,0,0,0-.5-.211h-1.062Zm-.571,2.538v-4.444h1.608a1.309,1.309,0,0,1,.9.344,1.118,1.118,0,0,1,.382.866.969.969,0,0,1-.165.56,1.035,1.035,0,0,1-.438.366v.024a1.132,1.132,0,0,1,.541.386,1.009,1.009,0,0,1,.211.633,1.167,1.167,0,0,1-.4.906,1.369,1.369,0,0,1-.947.36Z" transform="translate(-265.904 -1726.145)" fill="none" stroke="#fff" stroke-width="0.357"/>
          </g>
          <g id="g266" transform="translate(51.31 0.1)">
            <path id="path268" d="M275.1,1730.59v-4.444h.57v3.9H277.6v.546Z" transform="translate(-275.1 -1726.146)" fill="#fff"/>
          </g>
          <g id="g270" transform="translate(51.31 0.1)">
            <path id="path272" d="M275.1,1730.59v-4.444h.57v3.9H277.6v.546Z" transform="translate(-275.1 -1726.146)" fill="none" stroke="#fff" stroke-width="0.357"/>
          </g>
          <g id="g274" transform="translate(54.525 0.1)">
            <path id="path276" d="M285.452,1726.693h-2.024v1.409h1.824v.534h-1.824v1.409h2.024v.547h-2.595v-4.445h2.595Z" transform="translate(-282.857 -1726.147)" fill="#fff"/>
          </g>
          <g id="g278" transform="translate(54.525 0.1)">
            <path id="path280" d="M285.452,1726.693h-2.024v1.409h1.824v.534h-1.824v1.409h2.024v.547h-2.595v-4.445h2.595Z" transform="translate(-282.857 -1726.147)" fill="none" stroke="#fff" stroke-width="0.357"/>
          </g>
          <g id="g282" transform="translate(59.504 0.1)">
            <path id="path284" d="M297.462,1726.693h-2.024v1.409h1.824v.534h-1.824v1.409h2.024v.547h-2.595v-4.445h2.595Z" transform="translate(-294.867 -1726.147)" fill="#fff"/>
          </g>
          <g id="g286" transform="translate(59.504 0.1)">
            <path id="path288" d="M297.462,1726.693h-2.024v1.409h1.824v.534h-1.824v1.409h2.024v.547h-2.595v-4.445h2.595Z" transform="translate(-294.867 -1726.147)" fill="none" stroke="#fff" stroke-width="0.357"/>
          </g>
          <g id="g290" transform="translate(62.992 0.1)">
            <path id="path292" d="M303.282,1730.59v-4.444h.695l2.16,3.457h.025l-.025-.856v-2.6h.572v4.444h-.6l-2.26-3.625h-.024l.024.857v2.768Z" transform="translate(-303.282 -1726.146)" fill="#fff"/>
          </g>
          <g id="g294" transform="translate(62.992 0.1)">
            <path id="path296" d="M303.282,1730.59v-4.444h.695l2.16,3.457h.025l-.025-.856v-2.6h.572v4.444h-.6l-2.26-3.625h-.024l.024.857v2.768Z" transform="translate(-303.282 -1726.146)" fill="none" stroke="#fff" stroke-width="0.357"/>
          </g>
        </g>
      </g>
    </g>
  </g>
</svg>
