<svg id="logoMedix" xmlns="http://www.w3.org/2000/svg" xmlns:xlink="http://www.w3.org/1999/xlink" width="100" height="80.776" viewBox="0 0 100 80.776">
  <defs>
    <clipPath id="clip-path">
      <rect id="Rectángulo_3456" data-name="Rectángulo 3456" width="100" height="80.776" fill="#fff"/>
    </clipPath>
  </defs>
  <g id="Grupo_17" data-name="Grupo 17" clip-path="url(#clip-path)">
    <path id="Trazado_4614" data-name="Trazado 4614" d="M100,68.071a80.764,80.764,0,0,1-27.884,8.575c-31.821,3.925-59.747-10.2-62.383-31.555C7.248,24.947,28.1,5.52,57.194.095V0q-.619.066-1.245.141C22.439,4.278-2.52,25.522.2,47.593S32.3,84.208,65.81,80.075A84.053,84.053,0,0,0,100,68.384Z" transform="translate(0 -0.001)" fill="#fff"/>
    <path id="Trazado_4615" data-name="Trazado 4615" d="M77.695,144.277h3.053l-.283,1.457a5.342,5.342,0,0,1,3.748-1.744,3.365,3.365,0,0,1,2.09.566,2.542,2.542,0,0,1,.937,1.562,4.862,4.862,0,0,1,1.785-1.517,5.117,5.117,0,0,1,2.416-.611,3.079,3.079,0,0,1,2.234.779,2.745,2.745,0,0,1,.8,2.062,12.144,12.144,0,0,1-.335,2.14l-1.574,7.314H89.344L90.9,148.97c.194-.914.293-1.436.3-1.559a1.07,1.07,0,0,0-.3-.806,1.25,1.25,0,0,0-.9-.294,2.72,2.72,0,0,0-2.181,1.282,8.641,8.641,0,0,0-1.187,3.256l-1.138,5.436H82.266l1.516-7.26a10.586,10.586,0,0,0,.259-1.63,1.028,1.028,0,0,0-.32-.779,1.239,1.239,0,0,0-.887-.305,2.225,2.225,0,0,0-1.1.317,3.211,3.211,0,0,0-.991.874,5.2,5.2,0,0,0-.729,1.43c-.095.269-.247.885-.462,1.844l-1.147,5.509H75.183Z" transform="translate(-48.781 -93.425)" fill="#fff"/>
    <path id="Trazado_4616" data-name="Trazado 4616" d="M143.628,149.3h0c.008-.143.012-.25.012-.327a2.912,2.912,0,0,0-.6-2,2.044,2.044,0,0,0-1.6-.663,2.528,2.528,0,0,0-1.794.757,4.021,4.021,0,0,0-1.076,2.232Zm2.741,1.987h-8.121c-.008.127-.012.225-.012.293a2.735,2.735,0,0,0,.682,1.937,2.189,2.189,0,0,0,1.665.736,2.773,2.773,0,0,0,2.519-1.674l2.895.479a6.108,6.108,0,0,1-2.263,2.637,5.9,5.9,0,0,1-3.178.88,5.275,5.275,0,0,1-3.929-1.534,5.519,5.519,0,0,1-1.512-4.057,7.376,7.376,0,0,1,1.365-4.39,6.145,6.145,0,0,1,5.318-2.6,4.61,4.61,0,0,1,3.5,1.364,5.324,5.324,0,0,1,1.3,3.817,9.062,9.062,0,0,1-.225,2.116" transform="translate(-87.666 -93.425)" fill="#fff"/>
    <path id="Trazado_4617" data-name="Trazado 4617" d="M174.923,143.527h0a2.893,2.893,0,0,0,.658,2.014,2.073,2.073,0,0,0,1.611.725,2.634,2.634,0,0,0,1.658-.605,4.142,4.142,0,0,0,1.229-1.851,6.888,6.888,0,0,0,.461-2.385,3.074,3.074,0,0,0-.707-2.106,2.12,2.12,0,0,0-1.628-.8,2.711,2.711,0,0,0-2.358,1.585,6.672,6.672,0,0,0-.924,3.427m7.457,4.892h-3.053l.271-1.306a5.892,5.892,0,0,1-1.732,1.225,4.8,4.8,0,0,1-1.924.366,3.891,3.891,0,0,1-3.02-1.272,5.429,5.429,0,0,1-1.154-3.762,8.839,8.839,0,0,1,1.646-5.216,5.1,5.1,0,0,1,4.361-2.331,4.063,4.063,0,0,1,3.673,1.925l1.343-6.183h3.226Z" transform="translate(-111.449 -85.558)" fill="#fff"/>
    <path id="Trazado_4618" data-name="Trazado 4618" d="M214.188,131.865h3.227l-.613,2.919h-3.224Zm-.95,4.545h3.225l-2.516,12.008h-3.224Z" transform="translate(-136.724 -85.558)" fill="#fff"/>
    <path id="Trazado_4619" data-name="Trazado 4619" d="M231.865,153.469l-2.98,3.347h-3.969l5.506-6.133-3.043-5.876h3.446l1.764,3.409,3.043-3.409h3.948l-5.552,6.236,3.015,5.774H233.6Z" transform="translate(-145.933 -93.955)" fill="#fff"/>
    <path id="Trazado_4620" data-name="Trazado 4620" d="M274.963,144.425a2.9,2.9,0,0,1-.613.038h-.231v-.753h.231a2.8,2.8,0,0,1,.61.038.361.361,0,0,1,.191.131.32.32,0,0,1,.067.2.345.345,0,0,1-.067.211.36.36,0,0,1-.188.132m.493.727a1.431,1.431,0,0,0-.191-.218.772.772,0,0,0-.2-.1.887.887,0,0,0,.558-.265.731.731,0,0,0,.2-.519.773.773,0,0,0-.1-.4.713.713,0,0,0-.265-.268,1.111,1.111,0,0,0-.441-.111c-.065-.006-.367-.008-.9-.008h-.573v2.806h.573v-1.159h.15a.6.6,0,0,1,.391.119,1.885,1.885,0,0,1,.394.581l.236.459H276l-.333-.572c-.117-.2-.186-.315-.207-.342" transform="translate(-177.485 -92.951)" fill="#fff"/>
    <path id="Trazado_4621" data-name="Trazado 4621" d="M273.88,143.374a2.007,2.007,0,0,1-.785.786,2.122,2.122,0,0,1-2.113,0,2.031,2.031,0,0,1-.784-.786,2.144,2.144,0,0,1-.281-1.057,2.118,2.118,0,0,1,.288-1.068,1.955,1.955,0,0,1,.788-.781,2.148,2.148,0,0,1,2.093,0,1.958,1.958,0,0,1,.788.781,2.148,2.148,0,0,1,.289,1.068,2.122,2.122,0,0,1-.284,1.057m.452-2.387a2.426,2.426,0,0,0-.985-.975,2.666,2.666,0,0,0-2.615,0,2.451,2.451,0,0,0-.983.975,2.661,2.661,0,0,0-.006,2.651,2.517,2.517,0,0,0,.978.98,2.667,2.667,0,0,0,2.642,0,2.508,2.508,0,0,0,.978-.98,2.647,2.647,0,0,0-.008-2.651" transform="translate(-174.79 -90.622)" fill="#fff"/>
    <path id="Trazado_4622" data-name="Trazado 4622" d="M192.41,36.112l7.311-10.679,25.031,34.893H207.69Z" transform="translate(-124.842 -16.502)" fill="#fff"/>
    <path id="Trazado_4623" data-name="Trazado 4623" d="M114.927,31.4l-8.972-13.274-30.8,40H98.076Z" transform="translate(-48.761 -11.759)" fill="#fff"/>
  </g>
</svg>
