<svg xmlns="http://www.w3.org/2000/svg" width="250" height="61.999" viewBox="0 0 250 61.999">
  <g id="logoSupera" transform="translate(-2566.015 -390.883)">
    <g id="Grupo_17" data-name="Grupo 17" transform="translate(2641.069 406.187)">
      <g id="Grupo_16" data-name="Grupo 16" transform="translate(0 0)">
        <path id="Trazado_5065" data-name="Trazado 5065" d="M2941.395,445.65h4.644v14.922a4.25,4.25,0,0,0,.438,1.908,5.155,5.155,0,0,0,1.195,1.568,5.668,5.668,0,0,0,1.767,1.074,5.877,5.877,0,0,0,2.153.391,6.112,6.112,0,0,0,2.2-.392,5.853,5.853,0,0,0,1.8-1.074,5.289,5.289,0,0,0,1.228-1.568,4.113,4.113,0,0,0,.454-1.908V445.65h4.648v15.024a7.994,7.994,0,0,1-.824,3.56,9.427,9.427,0,0,1-2.221,2.93,10.7,10.7,0,0,1-3.281,1.976,10.947,10.947,0,0,1-4,.733,10.585,10.585,0,0,1-3.937-.733,10.783,10.783,0,0,1-3.249-1.976,9.2,9.2,0,0,1-2.2-2.93,8.14,8.14,0,0,1-.808-3.56Z" transform="translate(-2909.806 -445.395)" fill="#fff"/>
        <path id="Trazado_5066" data-name="Trazado 5066" d="M3058.9,445.649h9.663a9.436,9.436,0,0,1,3.332.583,8.233,8.233,0,0,1,2.675,1.6,7.575,7.575,0,0,1,1.783,2.416,6.95,6.95,0,0,1,.657,3,6.57,6.57,0,0,1-.673,2.916,7.831,7.831,0,0,1-1.833,2.416,9.047,9.047,0,0,1-2.691,1.652,8.664,8.664,0,0,1-3.249.613h-4.985v8.687H3058.9Zm4.678,10.97h4.98a3.96,3.96,0,0,0,2.641-1.022,3.658,3.658,0,0,0,.825-1.09,2.807,2.807,0,0,0,.3-1.261,3.108,3.108,0,0,0-1.077-2.4,3.872,3.872,0,0,0-2.692-.971h-4.98Z" transform="translate(-2993.932 -445.395)" fill="#fff"/>
        <path id="Trazado_5067" data-name="Trazado 5067" d="M3269.814,460.928v8.687h-4.677V445.769h9.524a9.91,9.91,0,0,1,3.433.579,8.543,8.543,0,0,1,2.726,1.583,7.329,7.329,0,0,1,1.8,2.385,6.919,6.919,0,0,1,.656,3.015,6.5,6.5,0,0,1-.487,2.487,7.546,7.546,0,0,1-1.333,2.146,7.962,7.962,0,0,1-1.986,1.618,8.916,8.916,0,0,1-2.457.971l-.606.136,7.3,8.926h-5.653l-7.135-8.687Zm8.746-7.6a3.083,3.083,0,0,0-1.043-2.4,4.178,4.178,0,0,0-2.894-.937h-4.813V456.7h4.879a4.41,4.41,0,0,0,1.515-.256,3.778,3.778,0,0,0,1.229-.714,3.462,3.462,0,0,0,.824-1.074,2.955,2.955,0,0,0,.3-1.333" transform="translate(-3141.577 -445.48)" fill="#fff"/>
        <path id="Trazado_5068" data-name="Trazado 5068" d="M3378.979,445.77l9.288,23.847h-4.98L3381.1,464h-8.58l-2.187,5.622h-4.981l9.289-23.847Zm-2.154,7.154-2.726,7.018h5.456Z" transform="translate(-3213.32 -445.481)" fill="#fff"/>
        <path id="Trazado_5069" data-name="Trazado 5069" d="M2844.743,455.183l-1.393-.094-3.951.005-2.193-.062a2.486,2.486,0,0,1-1.285-.245,2.561,2.561,0,0,1,.846-4.855l1.672-.083,10.5,0V445.6l-10.846,0-2.05.148a6.8,6.8,0,0,0,.072,13.468l2.637.125,5.219-.005v.022a3.046,3.046,0,0,1-.325,6.081v.007l-12.685-.009v4.248l13.393.013v-.037a7.285,7.285,0,0,0,.4-14.475" transform="translate(-2830.205 -445.359)" fill="#fff"/>
        <rect id="Rectángulo_3350" data-name="Rectángulo 3350" width="17.879" height="4.247" transform="translate(92.725)" fill="#fff"/>
        <path id="Trazado_5070" data-name="Trazado 5070" d="M3156.6,478.982v13.972h17.879v-4.248h-13.633v-5.479h13.633v-4.248H3156.6Z" transform="translate(-3063.872 -469.256)" fill="#fff"/>
      </g>
    </g>
    <g id="Grupo_23" data-name="Grupo 23" transform="translate(2566.015 390.883)">
      <g id="Grupo_18" data-name="Grupo 18" transform="translate(7.485 33.331)">
        <path id="Trazado_8" data-name="Trazado 8" d="M2597.352,528.647a4.738,4.738,0,0,1-2.17-9.064l23.569-10.967a4.737,4.737,0,1,1,3.836,8.663l-23.569,10.968A4.734,4.734,0,0,1,2597.352,528.647Z" transform="translate(-2592.362 -508.209)" fill="#fff"/>
      </g>
      <g id="Grupo_22" data-name="Grupo 22" transform="translate(0 0)">
        <g id="Grupo_19" data-name="Grupo 19" transform="translate(8.315 19.661)">
          <path id="Trazado_9" data-name="Trazado 9" d="M2617.7,502.427a29.657,29.657,0,0,1-21.217-8.617,4.2,4.2,0,1,1,6-5.868c4.942,5.055,12.673,7.184,20.177,5.559a23.261,23.261,0,0,0,16.8-15.152,19.716,19.716,0,0,0,.2-12.718,4.2,4.2,0,1,1,7.951-2.689,28.148,28.148,0,0,1-.221,18.164,31.253,31.253,0,0,1-29.691,21.32Z" transform="translate(-2595.285 -460.089)" fill="#fff"/>
        </g>
        <path id="Trazado_10" data-name="Trazado 10" d="M2638.177,436.087a4.738,4.738,0,0,1-2.17-9.063l24.313-11.912a4.737,4.737,0,0,1,3.836,8.663l-24.313,11.912A4.736,4.736,0,0,1,2638.177,436.087Z" transform="translate(-2614.104 -407.937)" fill="#fff"/>
        <g id="Grupo_20" data-name="Grupo 20" transform="translate(18.104 20.054)">
          <path id="Trazado_11" data-name="Trazado 11" d="M2650.643,483.032c-.516.029,1.759-2.026-2.805-3.858l-13.479-4.284c-3.632-1.261-5.677-5.6-4.052-10.321a8.178,8.178,0,0,1,1.758-3.1c.069,1.431.488,2.829,3.846,4.018l12.514,3.978c2.3.732,4.272,1.71,4.578,5.992C2653.135,477.324,2652.708,481.886,2650.643,483.032Z" transform="translate(-2629.742 -461.472)" fill="#fff"/>
        </g>
        <g id="Grupo_21" data-name="Grupo 21">
          <path id="Trazado_12" data-name="Trazado 12" d="M2570.439,429.567a4.2,4.2,0,0,1-4.155-3.641,30.888,30.888,0,0,1,51.177-27.2,4.2,4.2,0,0,1-5.561,6.287,22.5,22.5,0,0,0-37.3,19.806,4.2,4.2,0,0,1-3.6,4.716A4.274,4.274,0,0,1,2570.439,429.567Z" transform="translate(-2566.015 -390.883)" fill="#fff"/>
        </g>
      </g>
    </g>
    <g id="Grupo_24" data-name="Grupo 24" transform="translate(2764.628 435.004)">
      <path id="Trazado_5071" data-name="Trazado 5071" d="M3266.88,556.8H3269l-.2,1.012a3.712,3.712,0,0,1,2.6-1.212,2.342,2.342,0,0,1,1.453.393,1.773,1.773,0,0,1,.651,1.083,3.38,3.38,0,0,1,1.24-1.055,3.56,3.56,0,0,1,1.679-.425,2.135,2.135,0,0,1,1.553.541,1.9,1.9,0,0,1,.559,1.432,8.4,8.4,0,0,1-.233,1.488l-1.093,5.081h-2.241l1.083-5.081c.134-.636.2-1,.211-1.083a.742.742,0,0,0-.211-.56.867.867,0,0,0-.629-.2,1.892,1.892,0,0,0-1.516.891,6,6,0,0,0-.825,2.263l-.791,3.778h-2.241l1.053-5.045a7.378,7.378,0,0,0,.18-1.133.708.708,0,0,0-.222-.541.858.858,0,0,0-.616-.212,1.549,1.549,0,0,0-.762.22,2.239,2.239,0,0,0-.689.607,3.625,3.625,0,0,0-.507.994c-.066.187-.172.615-.321,1.282l-.8,3.832h-2.241Z" transform="translate(-3265.134 -553.638)" fill="#fff"/>
      <path id="Trazado_5072" data-name="Trazado 5072" d="M3322.524,560.275h0c.006-.1.009-.174.009-.228a2.024,2.024,0,0,0-.417-1.388,1.415,1.415,0,0,0-1.11-.462,1.759,1.759,0,0,0-1.249.526,2.8,2.8,0,0,0-.75,1.551Zm1.9,1.38h-5.644c0,.088-.007.157-.007.2a1.9,1.9,0,0,0,.474,1.345,1.52,1.52,0,0,0,1.157.511,1.926,1.926,0,0,0,1.749-1.166l2.011.333a4.247,4.247,0,0,1-1.572,1.833,4.1,4.1,0,0,1-2.208.611,3.664,3.664,0,0,1-2.73-1.066,3.832,3.832,0,0,1-1.052-2.819,5.123,5.123,0,0,1,.949-3.051,4.271,4.271,0,0,1,3.7-1.809,3.2,3.2,0,0,1,2.433.948,3.7,3.7,0,0,1,.9,2.652,6.28,6.28,0,0,1-.156,1.471" transform="translate(-3301.98 -553.626)" fill="#fff"/>
      <path id="Trazado_5073" data-name="Trazado 5073" d="M3350.275,554.3h0a2.01,2.01,0,0,0,.457,1.4,1.439,1.439,0,0,0,1.12.5,1.832,1.832,0,0,0,1.152-.417,2.865,2.865,0,0,0,.854-1.286,4.772,4.772,0,0,0,.322-1.658,2.133,2.133,0,0,0-.492-1.463,1.473,1.473,0,0,0-1.131-.559,1.884,1.884,0,0,0-1.638,1.1,4.641,4.641,0,0,0-.642,2.382m5.182,3.4h-2.122l.188-.907a4.1,4.1,0,0,1-1.2.851,3.341,3.341,0,0,1-1.337.255,2.7,2.7,0,0,1-2.1-.884,3.776,3.776,0,0,1-.8-2.615,6.146,6.146,0,0,1,1.144-3.625,3.545,3.545,0,0,1,3.031-1.62,2.823,2.823,0,0,1,2.552,1.338l.934-4.3h2.242Z" transform="translate(-3324.511 -546.193)" fill="#fff"/>
      <path id="Trazado_5074" data-name="Trazado 5074" d="M3383.976,546.191h2.242l-.427,2.028h-2.241Zm-.66,3.159h2.241l-1.749,8.345h-2.241Z" transform="translate(-3348.489 -546.191)" fill="#fff"/>
      <path id="Trazado_5075" data-name="Trazado 5075" d="M3398.594,563.333l-2.071,2.326h-2.758l3.826-4.262-2.115-4.082h2.4l1.226,2.369,2.114-2.369h2.744l-3.859,4.332,2.1,4.013H3399.8Z" transform="translate(-3357.222 -554.155)" fill="#fff"/>
      <path id="Trazado_5077" data-name="Trazado 5077" d="M3435.082,555.464a1.4,1.4,0,0,1-.545.546,1.477,1.477,0,0,1-1.468,0,1.418,1.418,0,0,1-.545-.546,1.493,1.493,0,0,1-.195-.735,1.476,1.476,0,0,1,.2-.741,1.361,1.361,0,0,1,.547-.543,1.493,1.493,0,0,1,1.454,0,1.358,1.358,0,0,1,.548.543,1.464,1.464,0,0,1,0,1.476m.314-1.659a1.685,1.685,0,0,0-.685-.678,1.855,1.855,0,0,0-1.818,0,1.7,1.7,0,0,0-.683.678,1.845,1.845,0,0,0,0,1.843,1.749,1.749,0,0,0,.68.68,1.851,1.851,0,0,0,1.833,0,1.742,1.742,0,0,0,.68-.68,1.842,1.842,0,0,0-.006-1.843" transform="translate(-3384.566 -550.986)" fill="#fff"/>
    </g>
  </g>
</svg>
